HIERARCHY
ROOT Hips
{
	OFFSET 0.000000 0.000000 0.000000 
	CHANNELS 6 Xposition Yposition Zposition Yrotation Zrotation Xrotation 
	JOINT Lumbar
	{
		OFFSET 0.000000 0.000000 0.000000 
		CHANNELS 3 Zrotation Xrotation Yrotation
		JOINT Neck
		{
			OFFSET 0.000000 0.445665 0.000000 
			CHANNELS 3 Zrotation Xrotation Yrotation
			End Site
			{
				OFFSET 0.000000 0.227535 0.000000 
			}
		}
		JOINT RightShoulder
		{
			OFFSET 0.019635 0.377685 0.194865 
			CHANNELS 3 Zrotation Xrotation Yrotation
			JOINT RightElbow
			{
				OFFSET 0.000000 -0.243375 0.000000 
				CHANNELS 2 Zrotation Yrotation
				JOINT RightWrist
				{
					OFFSET 0.000000 -0.264825 0.000000 
					CHANNELS 2 Zrotation Xrotation
					End Site
					{
						OFFSET 0.006600 -0.176220 0.000990 
					}
				}
			}
		}
		JOINT LeftShoulder
		{
			OFFSET 0.019635 0.377685 -0.194865 
			CHANNELS 3 Zrotation Xrotation Yrotation
			JOINT LeftElbow
			{
				OFFSET 0.000000 -0.243375 0.000000 
				CHANNELS 2 Zrotation Yrotation
				JOINT LeftWrist
				{
					OFFSET 0.000000 -0.264825 0.000000 
					CHANNELS 2 Zrotation Xrotation
					End Site
					{
						OFFSET 0.006600 -0.176220 -0.000990 
					}
				}
			}
		}
	}
	JOINT RightHip
	{
		OFFSET 0.052140 -0.069960 0.075570 
		CHANNELS 3 Zrotation Xrotation Yrotation
		JOINT RightKnee
		{
			OFFSET 0.000000 -0.402270 0.000000 
			CHANNELS 1 Zrotation
			JOINT RightAnkle
			{
				OFFSET 0.000000 -0.404085 0.000000 
				CHANNELS 3 Zrotation Xrotation Yrotation
				End Site
				{
					OFFSET 0.204105 -0.089430 0.008415 
				}
			}
		}
	}
	JOINT LeftHip
	{
		OFFSET 0.052140 -0.069960 -0.075570 
		CHANNELS 3 Zrotation Xrotation Yrotation
		JOINT LeftKnee
		{
			OFFSET 0.000000 -0.402270 0.000000 
			CHANNELS 1 Zrotation
			JOINT LeftAnkle
			{
				OFFSET 0.000000 -0.404085 0.000000 
				CHANNELS 3 Zrotation Xrotation Yrotation
				End Site
				{
					OFFSET 0.204105 -0.089430 -0.008415 
				}
			}
		}
	}
}
MOTION
Frames: 33
Frame Time: 0.02
-6e-05 -7e-05 0.00017 21.35294 -23.83923 -6.98044 44.68482 2.6444 -4.76134 -8.41472 -0.98494 -0.33392 -28.87102 -10.02544 -4.44536 43.77167 88.57368 5.86038 0.10425 -32.25766 10.67857 7.51656 48.18233 -115.70179 19.7345 -3.43427 36.85365 -1.84963 -10.20651 -21.24705 -9.33603 -4.13663 -4.39442 40.19781 10.61098 4.70079 -27.18617 -9.65854 3.98241 4.32576
0.00015 -8e-05 -0.00021 21.28792 -23.8426 -6.97428 44.72631 2.64923 -4.77415 -8.40879 -0.98332 -0.33448 -28.87608 -9.99423 -4.4594 43.75133 88.57715 5.85506 0.10751 -32.25279 10.66579 7.52893 48.17167 -115.70651 19.73117 -3.44088 36.83726 -1.92505 -10.51288 -21.25322 -9.29705 -4.11286 -4.37984 40.16508 10.66121 4.97379 -27.20482 -9.62227 3.96602 4.31604
0.00036 -0.0001 -0.00059 21.22307 -23.84594 -6.96813 44.76765 2.65403 -4.78697 -8.40285 -0.98171 -0.33505 -28.88111 -9.96275 -4.47421 43.73107 88.58636 5.85088 0.11204 -32.24795 10.6534 7.5405 48.16107 -115.70621 19.72653 -3.44665 36.82087 -2.00029 -10.81843 -21.25935 -9.2582 -4.08915 -4.3653 40.1324 10.71123 5.24585 -27.22338 -9.58612 3.94968 4.30636
0.00058 -0.00011 -0.00098 21.15825 -23.8493 -6.96198 44.80901 2.65884 -4.79975 -8.39693 -0.9801 -0.33561 -28.88615 -9.93156 -4.48836 43.7108 88.59095 5.84581 0.11554 -32.24309 10.64073 7.55268 48.15045 -115.70995 19.72295 -3.45308 36.80453 -2.07549 -11.12388 -21.2655 -9.21934 -4.06546 -4.35077 40.09976 10.7613 5.51799 -27.24197 -9.54997 3.93334 4.29668
0.00079 -0.00012 -0.00136 21.09327 -23.85272 -6.95582 44.85055 2.66368 -4.81252 -8.39104 -0.97847 -0.33617 -28.89121 -9.90082 -4.50138 43.69046 88.58711 5.83907 0.11714 -32.23818 10.62753 7.56603 48.13976 -115.72102 19.72131 -3.46073 36.78821 -2.15087 -11.43013 -21.27169 -9.18037 -4.0417 -4.33619 40.0671 10.81159 5.79113 -27.26064 -9.51368 3.91694 4.28696
0.001 -0.00013 -0.00174 21.02873 -23.85586 -6.9497 44.89145 2.66843 -4.82543 -8.38499 -0.9769 -0.33674 -28.89619 -9.86782 -4.51989 43.67034 88.62338 5.8402 0.12776 -32.23349 10.61682 7.5739 48.12935 -115.6971 19.71043 -3.46257 36.77168 -2.22579 -11.73416 -21.27771 -9.14174 -4.01809 -4.32172 40.03436 10.86105 6.0609 -27.27898 -9.47785 3.90074 4.27737
0.00122 -0.00014 -0.00212 20.96337 -23.85956 -6.9435 44.93358 2.67334 -4.83804 -8.37926 -0.97521 -0.3373 -28.90132 -9.83929 -4.52755 43.64981 88.58046 5.82579 0.12058 -32.22838 10.60119 7.59259 48.1184 -115.74235 19.71782 -3.47591 36.75559 -2.30154 -12.0423 -21.28406 -9.10248 -3.99422 -4.30707 40.00181 10.91212 6.33711 -27.29796 -9.44113 3.88416 4.26752
0.00143 -0.00015 -0.0025 20.89876 -23.86275 -6.93737 44.97461 2.67811 -4.85091 -8.37326 -0.97364 -0.33786 -28.90635 -9.80682 -4.54481 43.62966 88.60773 5.82519 0.12918 -32.22363 10.58994 7.60166 48.10793 -115.72614 19.70897 -3.47902 36.73911 -2.37655 -12.34669 -21.29011 -9.0638 -3.97058 -4.29258 39.9691 10.96171 6.60744 -27.31636 -9.40523 3.86793 4.25791
0.00163 -0.00016 -0.00288 20.83505 -23.86529 -6.93133 45.01417 2.68271 -4.8642 -8.36681 -0.97218 -0.33843 -28.91108 -9.76876 -4.57556 43.60993 88.73308 5.84376 0.15979 -32.21942 10.58474 7.5974 48.0981 -115.62469 19.67758 -3.46797 36.72206 -2.45063 -12.64651 -21.29576 -9.02581 -3.94724 -4.2783 39.93612 11.0095 6.87046 -27.33401 -9.37035 3.8521 4.24859
0.00187 -0.00018 -0.00327 20.76612 -23.87147 -6.92481 45.06182 2.68826 -4.87539 -8.3626 -0.96998 -0.33898 -28.91701 -9.76051 -4.53398 43.58769 88.33117 5.75894 0.07197 -32.2124 10.54682 7.66508 48.08476 -115.98317 19.76778 -3.53339 36.70802 -2.52998 -12.97267 -21.30363 -8.9838 -3.92222 -4.26283 39.90449 11.06765 7.17518 -27.35587 -9.32965 3.8339 4.23759
0.00204 -0.00018 -0.00363 20.70822 -23.87006 -6.91928 45.09261 2.69182 -4.8908 -8.35386 -0.9694 -0.33955 -28.92072 -9.69092 -4.64153 43.57079 89.01734 5.88768 0.22863 -32.21111 10.57655 7.58413 48.07872 -115.39131 19.60679 -3.44076 36.68778 -2.59822 -13.24316 -21.30687 -8.95028 -3.90075 -4.24988 39.87012 11.10397 7.39214 -27.36893 -9.30119 3.82073 4.23014
0.00205 -0.00011 -0.0039 20.6807 -23.84682 -6.91673 45.07507 2.68971 -4.91971 -8.331 -0.97296 -0.34017 -28.91585 -9.43871 -5.19059 43.56829 92.91622 6.64525 1.10661 -32.22742 10.80525 7.0651 48.09379 -111.99865 18.70522 -2.88264 36.64931 -2.63556 -13.36014 -21.29693 -8.94031 -3.88894 -4.24387 39.82719 11.07968 7.36424 -27.35697 -9.30692 3.82135 4.23258
0.00199 -3e-05 -0.00413 20.66424 -23.81615 -6.91515 45.04098 2.68562 -4.95251 -8.3039 -0.97821 -0.34079 -28.90918 -9.12775 -5.88304 43.57118 97.86244 7.60864 2.22 -32.24915 11.09942 6.40236 48.11597 -107.68689 17.56079 -2.1716 36.60484 -2.6618 -13.42127 -21.28244 -8.93881 -3.8807 -4.2404 39.78169 11.03364 7.24907 -27.33636 -9.32483 3.827 4.23854
0.00196 5e-05 -0.00438 20.64264 -23.78952 -6.91298 45.01577 2.68254 -4.98228 -8.27985 -0.98289 -0.3414 -28.90499 -8.85276 -6.48931 43.57185 102.18536 8.45079 3.19373 -32.26713 11.35491 5.82515 48.13424 -103.92235 16.56118 -1.5514 36.56389 -2.69339 -13.50853 -21.27035 -8.93325 -3.87086 -4.23576 39.73802 10.99802 7.17634 -27.32028 -9.33681 3.83035 4.2428
0.00192 0.00013 -0.00462 20.62153 -23.76002 -6.91141 44.98474 2.67899 -5.01737 -8.25105 -0.98676 -0.34204 -28.89391 -8.53772 -7.1862 43.57172 107.14569 9.41319 4.309 -32.29045 11.6482 5.16246 48.15548 -99.61126 15.41619 -0.84113 36.51956 -2.72368 -13.5928 -21.25683 -8.92858 -3.86093 -4.23119 39.69154 10.96002 7.09123 -27.30163 -9.35056 3.83381 4.24753
0.00189 0.0002 -0.00487 20.60205 -23.73479 -6.90884 44.96197 2.67596 -5.04234 -8.23115 -0.99268 -0.34263 -28.89661 -8.29319 -7.72628 43.57435 111.00996 10.17031 5.18135 -32.30407 11.87832 4.64355 48.17209 -96.21799 14.51576 -0.28177 36.4809 -2.75401 -13.66969 -21.24521 -8.9241 -3.85205 -4.22708 39.65034 10.92193 7.01178 -27.28632 -9.36341 3.83818 4.25207
0.0019 0.00022 -0.00517 20.5842 -23.72279 -6.90319 44.9656 2.67461 -5.03795 -8.23665 -1.00418 -0.34311 -28.93891 -8.24883 -7.81596 43.58478 111.73582 10.34151 5.35924 -32.28836 11.91696 4.55989 48.17525 -95.61705 14.35856 -0.18192 36.45885 -2.78756 -13.7433 -21.23998 -8.91791 -3.84513 -4.22356 39.62386 10.8878 6.96464 -27.28202 -9.37155 3.84429 4.25543
0.00192 0.00022 -0.00548 20.56768 -23.71539 -6.89653 44.97814 2.67387 -5.02332 -8.25125 -1.0176 -0.34356 -28.99491 -8.27885 -7.74014 43.59757 111.30001 10.29412 5.27922 -32.26292 11.88973 4.62578 48.17334 -95.96945 14.45541 -0.23887 36.44281 -2.82146 -13.81074 -21.23681 -8.91169 -3.83916 -4.22044 39.60289 10.85448 6.92689 -27.28142 -9.37826 3.85106 4.25842
0.00193 0.00024 -0.00579 20.55062 -23.70612 -6.89039 44.98698 2.67301 -5.01365 -8.26189 -1.0299 -0.34402 -29.04397 -8.28105 -7.72765 43.60821 111.29476 10.32497 5.29351 -32.24277 11.89356 4.62074 48.173 -95.85915 14.42913 -0.21974 36.42438 -2.85496 -13.87885 -21.23271 -8.9056 -3.83279 -4.21718 39.57971 10.82158 6.88817 -27.27937 -9.38508 3.85721 4.26141
0.00194 0.00025 -0.00609 20.53352 -23.6957 -6.884 44.99401 2.67148 -5.0028 -8.27183 -1.04332 -0.34448 -29.09612 -8.25715 -7.76781 43.62336 111.71717 10.44795 5.40814 -32.21924 11.89574 4.62153 48.17586 -95.82538 14.42249 -0.21305 36.40435 -2.88913 -13.95425 -21.22846 -8.89925 -3.82638 -4.21381 39.55515 10.78483 6.83333 -27.27614 -9.39446 3.86485 4.2652
0.00195 0.00026 -0.00641 20.51687 -23.68881 -6.8779 45.00683 2.67147 -4.99197 -8.28522 -1.05482 -0.34494 -29.14495 -8.30455 -7.66032 43.6299 110.98441 10.32962 5.2552 -32.20027 11.88386 4.64965 48.17096 -95.8903 14.44381 -0.2229 36.38912 -2.92207 -14.01343 -21.22503 -8.8934 -3.82029 -4.21076 39.53484 10.7563 6.81436 -27.27625 -9.39816 3.86952 4.26724
0.00195 0.00025 -0.00678 20.49928 -23.69123 -6.87273 45.0361 2.6758 -4.98333 -8.30777 -1.06076 -0.34539 -29.18255 -8.54352 -7.15793 43.60928 107.12873 9.55364 4.37678 -32.197 11.85797 4.69892 48.14396 -95.82471 14.43405 -0.21245 36.38602 -2.95236 -14.03239 -21.22366 -8.88808 -3.81439 -4.20824 39.52452 10.75262 6.90199 -27.28566 -9.38522 3.86537 4.26416
0.00194 0.00024 -0.00718 20.48239 -23.69695 -6.8679 45.07048 2.68158 -4.9751 -8.33319 -1.06466 -0.34584 -29.21606 -8.84936 -6.51754 43.58032 102.18887 8.55024 3.24677 -32.1985 11.81852 4.77411 48.10962 -95.85771 14.45236 -0.2185 36.38753 -2.98135 -14.03504 -21.223 -8.88335 -3.80885 -4.20606 39.51837 10.75687 7.02404 -27.29819 -9.36679 3.85826 4.25937
0.00193 0.00024 -0.00756 20.46633 -23.70078 -6.86298 45.10085 2.6865 -4.96695 -8.35609 -1.06938 -0.34629 -29.25067 -9.11669 -5.95721 43.55707 97.87884 7.67856 2.2625 -32.19728 11.77892 4.8504 48.07989 -95.96688 14.49078 -0.23677 36.38677 -3.01045 -14.04328 -21.22181 -8.87889 -3.80345 -4.2039 39.51058 10.75604 7.12424 -27.30868 -9.35168 3.8528 4.25559
0.00194 0.00022 -0.00797 20.44543 -23.70646 -6.85776 45.13861 2.69229 -4.95741 -8.38432 -1.07468 -0.34673 -29.28916 -9.42169 -5.31616 43.52609 92.93788 6.67728 1.13399 -32.198 11.76264 4.87937 48.0447 -95.61513 14.40387 -0.17994 36.38697 -3.04151 -14.05853 -21.22153 -8.87225 -3.79686 -4.20104 39.50191 10.76141 7.25069 -27.32187 -9.33307 3.84609 4.25083
0.0019 0.00022 -0.00833 20.43482 -23.70896 -6.85326 45.16212 2.6966 -4.95086 -8.40215 -1.0782 -0.3472 -29.31817 -9.66213 -4.8149 43.50882 89.08387 5.89769 0.25304 -32.19602 11.69675 5.00871 48.0191 -96.21298 14.57548 -0.27791 36.38615 -3.06826 -14.05596 -21.21956 -8.87021 -3.79278 -4.19968 39.49596 10.75582 7.33084 -27.33019 -9.3204 3.84127 4.2477
0.00169 0.00025 -0.00856 20.45176 -23.70232 -6.85072 45.14458 2.69672 -4.95373 -8.38939 -1.07777 -0.34775 -29.32397 -9.71662 -4.71362 43.53484 88.36408 5.76041 0.08646 -32.18476 11.48603 5.42923 48.02257 -99.59227 15.50464 -0.82937 36.38195 -3.08257 -14.00346 -21.21216 -8.88139 -3.79576 -4.2026 39.49684 10.71744 7.27239 -27.32374 -9.326 3.84242 4.24964
0.00141 0.0003 -0.00874 20.47912 -23.6923 -6.84892 45.1126 2.69529 -4.95942 -8.36627 -1.07552 -0.34833 -29.31997 -9.70211 -4.76166 43.57432 88.80153 5.85902 0.18368 -32.17079 11.22823 5.94543 48.03581 -103.88566 16.68254 -1.52978 36.3765 -3.0927 -13.9345 -21.20314 -8.89707 -3.80121 -4.20698 39.50028 10.66796 7.16682 -27.31238 -9.33765 3.84555 4.25326
0.00116 0.00033 -0.00894 20.50218 -23.68344 -6.84675 45.08739 2.69441 -4.96308 -8.34862 -1.07378 -0.34889 -29.31906 -9.71278 -4.75597 43.6054 88.80755 5.86858 0.18294 -32.15853 10.99971 6.40362 48.04409 -107.63456 17.71189 -2.14133 36.3712 -3.10534 -13.87628 -21.19524 -8.91027 -3.80537 -4.21054 39.50224 10.62386 7.08397 -27.30358 -9.34623 3.84777 4.25604
0.00092 0.00038 -0.00914 20.52355 -23.6761 -6.84465 45.06123 2.69417 -4.96993 -8.3278 -1.0733 -0.34947 -29.32364 -9.75084 -4.68838 43.6458 88.39469 5.79713 0.08499 -32.14438 10.73761 6.92376 48.05435 -111.92917 18.89139 -2.84239 36.36763 -3.1155 -13.80386 -21.18573 -8.92529 -3.81023 -4.21477 39.50549 10.57828 6.99572 -27.29344 -9.35608 3.84997 4.2591
0.00066 0.0004 -0.00933 20.55074 -23.66498 -6.84266 45.03386 2.69228 -4.97077 -8.31114 -1.0698 -0.35003 -29.31466 -9.71594 -4.78363 43.67014 89.12006 5.94879 0.25007 -32.13352 10.53419 7.33773 48.06282 -115.30691 19.81797 -3.39283 36.36036 -3.1297 -13.75712 -21.17919 -8.9376 -3.81423 -4.21795 39.50685 10.53348 6.90844 -27.28499 -9.36463 3.85265 4.26196
0.00036 0.00036 -0.00948 20.59289 -23.64233 -6.84001 45.00412 2.68562 -4.95454 -8.30791 -1.05821 -0.35058 -29.26941 -9.48411 -5.32234 43.64636 92.91482 6.70028 1.12551 -32.13186 10.5069 7.43016 48.06489 -115.89104 19.97467 -3.48453 36.34079 -3.15731 -13.78719 -21.18121 -8.94123 -3.81518 -4.21775 39.50025 10.48967 6.82319 -27.28129 -9.36946 3.85681 4.26436
5e-05 0.00029 -0.0096 20.64027 -23.61631 -6.83757 44.97409 2.67746 -4.93213 -8.30929 -1.0437 -0.35112 -29.21111 -9.18312 -6.01497 43.60611 97.78243 7.66175 2.24898 -32.1337 10.53991 7.41313 48.06469 -115.52696 19.86993 -3.42053 36.31792 -3.18892 -13.84338 -21.18628 -8.94198 -3.81519 -4.21646 39.49201 10.44765 6.74239 -27.27963 -9.37257 3.86128 4.26643
